<svg xmlns="http://www.w3.org/2000/svg" xmlns:xlink="http://www.w3.org/1999/xlink" width="2000" zoomAndPan="magnify" viewBox="0 0 1500 1499.999933" height="2000" preserveAspectRatio="xMidYMid meet" version="1.0"><defs><g/><clipPath id="efd9ab1074"><path d="M 77 371 L 613 371 L 613 936 L 77 936 Z M 77 371 " clip-rule="nonzero"/></clipPath><clipPath id="f6ceea4198"><path d="M 45.011719 402.015625 L 613.992188 367.910156 L 646.703125 913.679688 L 77.726562 947.785156 Z M 45.011719 402.015625 " clip-rule="nonzero"/></clipPath><clipPath id="2203bdfa6e"><path d="M 45.011719 402.015625 L 613.992188 367.910156 L 646.703125 913.679688 L 77.726562 947.785156 Z M 45.011719 402.015625 " clip-rule="nonzero"/></clipPath><clipPath id="ac14f3ad1c"><rect x="0" width="786" y="0" height="300"/></clipPath><clipPath id="b1a9957be6"><rect x="0" width="493" y="0" height="300"/></clipPath><clipPath id="eb6a26a336"><rect x="0" width="915" y="0" height="118"/></clipPath></defs><rect x="-150" width="1800" fill="#ffffff" y="-149.999993" height="1799.99992" fill-opacity="1"/><rect x="-150" width="1800" fill="#ffffff" y="-149.999993" height="1799.99992" fill-opacity="1"/><g clip-path="url(#efd9ab1074)"><g clip-path="url(#f6ceea4198)"><g clip-path="url(#2203bdfa6e)"><path fill="#5170ff" d="M 481.125 800.839844 L 451.804688 774.835938 C 446.21875 769.878906 445.707031 761.355469 450.664062 755.769531 L 484.257812 717.890625 C 489.210938 712.304688 488.699219 703.78125 483.113281 698.824219 C 477.527344 693.871094 469.003906 694.378906 464.046875 699.96875 L 404.003906 767.667969 C 397.820312 774.640625 387.15625 775.277344 380.1875 769.097656 C 373.214844 762.914062 372.578125 752.25 378.757812 745.28125 L 479.117188 632.125 C 484.070312 626.539062 483.558594 618.015625 477.972656 613.058594 C 472.386719 608.105469 463.863281 608.613281 458.90625 614.203125 L 243.953125 856.566406 C 237.769531 863.539062 227.109375 864.179688 220.136719 857.996094 C 213.164062 851.8125 212.527344 841.152344 218.707031 834.179688 L 393.351562 637.265625 C 398.304688 631.679688 397.796875 623.15625 392.207031 618.199219 C 386.621094 613.246094 378.097656 613.753906 373.140625 619.34375 L 305.039062 696.128906 C 300.082031 701.71875 291.558594 702.226562 285.972656 697.273438 L 280.914062 692.785156 C 275.324219 687.832031 274.816406 679.304688 279.769531 673.71875 L 388.183594 551.480469 C 393.140625 545.890625 392.628906 537.367188 387.042969 532.414062 C 381.453125 527.457031 372.929688 527.96875 367.976562 533.554688 L 112.558594 821.621094 C 106.375 828.59375 95.710938 829.230469 88.742188 823.046875 C 81.769531 816.867188 81.128906 806.203125 87.3125 799.234375 L 302.445312 556.667969 C 307.402344 551.078125 306.890625 542.554688 301.304688 537.597656 C 295.714844 532.644531 287.191406 533.15625 282.238281 538.742188 L 248.667969 576.617188 C 243.710938 582.207031 235.1875 582.714844 229.601562 577.761719 L 200.28125 551.757812 C 192.78125 545.105469 194.90625 532.871094 204.214844 529.121094 L 593.730469 372.804688 C 604.0625 368.65625 614.683594 378.078125 611.800781 388.832031 L 503.128906 794.230469 C 500.515625 803.917969 488.625 807.492188 481.125 800.839844 Z M 258.523438 723.175781 C 251.550781 716.992188 240.890625 717.632812 234.707031 724.605469 L 81.316406 897.554688 C 75.132812 904.527344 75.773438 915.1875 82.742188 921.371094 C 89.714844 927.554688 100.375 926.917969 106.558594 919.945312 L 259.949219 746.992188 C 266.132812 740.019531 265.496094 729.359375 258.523438 723.175781 Z M 358.378906 793.683594 C 351.40625 787.5 340.746094 788.140625 334.5625 795.113281 L 234.855469 907.535156 C 228.671875 914.507812 229.308594 925.167969 236.28125 931.351562 C 243.253906 937.535156 253.914062 936.894531 260.097656 929.925781 L 359.804688 817.5 C 365.988281 810.527344 365.351562 799.867188 358.378906 793.683594 Z M 210.390625 868.347656 C 203.597656 862.324219 193.195312 862.945312 187.167969 869.742188 C 181.140625 876.535156 181.765625 886.9375 188.5625 892.964844 C 195.355469 898.988281 205.757812 898.367188 211.78125 891.570312 C 217.808594 884.777344 217.1875 874.375 210.390625 868.347656 Z M 210.390625 868.347656 " fill-opacity="1" fill-rule="nonzero"/></g></g></g><g transform="matrix(1, 0, 0, 1, 585, 496)"><g clip-path="url(#ac14f3ad1c)"><g fill="#000000" fill-opacity="1"><g transform="translate(0.387991, 223.268907)"><g><path d="M 11.875 -207.734375 L 44.515625 -207.734375 L 44.515625 0 L 11.875 0 Z M 11.875 -207.734375 "/></g></g></g><g fill="#000000" fill-opacity="1"><g transform="translate(56.77075, 223.268907)"><g><path d="M 81.015625 -60.25 L 103.28125 -207.734375 L 148.671875 -207.734375 L 148.671875 0 L 117.8125 0 L 117.8125 -148.96875 L 95.265625 0 L 64.390625 0 L 40.0625 -146.90625 L 40.0625 0 L 11.578125 0 L 11.578125 -207.734375 L 56.984375 -207.734375 Z M 81.015625 -60.25 "/></g></g></g><g fill="#000000" fill-opacity="1"><g transform="translate(217.313373, 223.268907)"><g><path d="M 59.953125 -207.734375 C 76.367188 -207.734375 88.582031 -203.378906 96.59375 -194.671875 C 104.601562 -185.972656 108.609375 -173.210938 108.609375 -156.390625 L 108.609375 -129.390625 C 108.609375 -112.578125 104.601562 -99.816406 96.59375 -91.109375 C 88.582031 -82.398438 76.367188 -78.046875 59.953125 -78.046875 L 44.515625 -78.046875 L 44.515625 0 L 11.875 0 L 11.875 -207.734375 Z M 44.515625 -178.0625 L 44.515625 -107.71875 L 59.953125 -107.71875 C 65.085938 -107.71875 69.039062 -109.101562 71.8125 -111.875 C 74.582031 -114.644531 75.96875 -119.789062 75.96875 -127.3125 L 75.96875 -158.46875 C 75.96875 -165.988281 74.582031 -171.132812 71.8125 -173.90625 C 69.039062 -176.675781 65.085938 -178.0625 59.953125 -178.0625 Z M 44.515625 -178.0625 "/></g></g></g><g fill="#000000" fill-opacity="1"><g transform="translate(329.188674, 223.268907)"><g><path d="M 80.125 0 C 79.726562 -1.382812 79.332031 -2.671875 78.9375 -3.859375 C 78.539062 -5.046875 78.191406 -6.53125 77.890625 -8.3125 C 77.597656 -10.09375 77.398438 -12.367188 77.296875 -15.140625 C 77.203125 -17.910156 77.15625 -21.367188 77.15625 -25.515625 L 77.15625 -58.171875 C 77.15625 -67.859375 75.472656 -74.679688 72.109375 -78.640625 C 68.742188 -82.597656 63.304688 -84.578125 55.796875 -84.578125 L 44.515625 -84.578125 L 44.515625 0 L 11.875 0 L 11.875 -207.734375 L 61.140625 -207.734375 C 78.148438 -207.734375 90.460938 -203.773438 98.078125 -195.859375 C 105.691406 -187.953125 109.5 -175.984375 109.5 -159.953125 L 109.5 -143.640625 C 109.5 -122.265625 102.378906 -108.21875 88.140625 -101.5 C 96.453125 -98.132812 102.140625 -92.640625 105.203125 -85.015625 C 108.265625 -77.398438 109.796875 -68.15625 109.796875 -57.28125 L 109.796875 -25.21875 C 109.796875 -20.082031 109.992188 -15.582031 110.390625 -11.71875 C 110.785156 -7.863281 111.773438 -3.957031 113.359375 0 Z M 44.515625 -178.0625 L 44.515625 -114.25 L 57.28125 -114.25 C 63.40625 -114.25 68.195312 -115.832031 71.65625 -119 C 75.125 -122.164062 76.859375 -127.90625 76.859375 -136.21875 L 76.859375 -156.6875 C 76.859375 -164.207031 75.519531 -169.648438 72.84375 -173.015625 C 70.175781 -176.378906 65.976562 -178.0625 60.25 -178.0625 Z M 44.515625 -178.0625 "/></g></g></g><g fill="#000000" fill-opacity="1"><g transform="translate(448.482829, 223.268907)"><g><path d="M 44.515625 -120.1875 L 89.328125 -120.1875 L 89.328125 -90.515625 L 44.515625 -90.515625 L 44.515625 -29.671875 L 100.90625 -29.671875 L 100.90625 0 L 11.875 0 L 11.875 -207.734375 L 100.90625 -207.734375 L 100.90625 -178.0625 L 44.515625 -178.0625 Z M 44.515625 -120.1875 "/></g></g></g><g fill="#000000" fill-opacity="1"><g transform="translate(557.687394, 223.268907)"><g><path d="M 7.71875 -157.875 C 7.71875 -174.695312 11.722656 -187.609375 19.734375 -196.609375 C 27.742188 -205.609375 39.765625 -210.109375 55.796875 -210.109375 C 71.816406 -210.109375 83.832031 -205.609375 91.84375 -196.609375 C 99.863281 -187.609375 103.875 -174.695312 103.875 -157.875 L 103.875 -149.859375 L 73 -149.859375 L 73 -159.953125 C 73 -167.472656 71.5625 -172.765625 68.6875 -175.828125 C 65.820312 -178.898438 61.820312 -180.4375 56.6875 -180.4375 C 51.539062 -180.4375 47.53125 -178.898438 44.65625 -175.828125 C 41.789062 -172.765625 40.359375 -167.472656 40.359375 -159.953125 C 40.359375 -152.828125 41.941406 -146.546875 45.109375 -141.109375 C 48.273438 -135.671875 52.226562 -130.523438 56.96875 -125.671875 C 61.71875 -120.828125 66.8125 -115.984375 72.25 -111.140625 C 77.695312 -106.296875 82.796875 -101.003906 87.546875 -95.265625 C 92.296875 -89.523438 96.253906 -82.992188 99.421875 -75.671875 C 102.585938 -68.347656 104.171875 -59.742188 104.171875 -49.859375 C 104.171875 -33.035156 100.0625 -20.125 91.84375 -11.125 C 83.632812 -2.125 71.519531 2.375 55.5 2.375 C 39.46875 2.375 27.347656 -2.125 19.140625 -11.125 C 10.929688 -20.125 6.828125 -33.035156 6.828125 -49.859375 L 6.828125 -64.09375 L 37.6875 -64.09375 L 37.6875 -47.78125 C 37.6875 -40.257812 39.21875 -35.015625 42.28125 -32.046875 C 45.351562 -29.078125 49.460938 -27.59375 54.609375 -27.59375 C 59.753906 -27.59375 63.859375 -29.078125 66.921875 -32.046875 C 69.984375 -35.015625 71.515625 -40.257812 71.515625 -47.78125 C 71.515625 -54.90625 69.929688 -61.1875 66.765625 -66.625 C 63.609375 -72.0625 59.65625 -77.203125 54.90625 -82.046875 C 50.15625 -86.898438 45.054688 -91.75 39.609375 -96.59375 C 34.171875 -101.445312 29.078125 -106.738281 24.328125 -112.46875 C 19.585938 -118.207031 15.632812 -124.738281 12.46875 -132.0625 C 9.300781 -139.382812 7.71875 -147.988281 7.71875 -157.875 Z M 7.71875 -157.875 "/></g></g></g><g fill="#000000" fill-opacity="1"><g transform="translate(668.672482, 223.268907)"><g><path d="M 7.71875 -157.875 C 7.71875 -174.695312 11.722656 -187.609375 19.734375 -196.609375 C 27.742188 -205.609375 39.765625 -210.109375 55.796875 -210.109375 C 71.816406 -210.109375 83.832031 -205.609375 91.84375 -196.609375 C 99.863281 -187.609375 103.875 -174.695312 103.875 -157.875 L 103.875 -149.859375 L 73 -149.859375 L 73 -159.953125 C 73 -167.472656 71.5625 -172.765625 68.6875 -175.828125 C 65.820312 -178.898438 61.820312 -180.4375 56.6875 -180.4375 C 51.539062 -180.4375 47.53125 -178.898438 44.65625 -175.828125 C 41.789062 -172.765625 40.359375 -167.472656 40.359375 -159.953125 C 40.359375 -152.828125 41.941406 -146.546875 45.109375 -141.109375 C 48.273438 -135.671875 52.226562 -130.523438 56.96875 -125.671875 C 61.71875 -120.828125 66.8125 -115.984375 72.25 -111.140625 C 77.695312 -106.296875 82.796875 -101.003906 87.546875 -95.265625 C 92.296875 -89.523438 96.253906 -82.992188 99.421875 -75.671875 C 102.585938 -68.347656 104.171875 -59.742188 104.171875 -49.859375 C 104.171875 -33.035156 100.0625 -20.125 91.84375 -11.125 C 83.632812 -2.125 71.519531 2.375 55.5 2.375 C 39.46875 2.375 27.347656 -2.125 19.140625 -11.125 C 10.929688 -20.125 6.828125 -33.035156 6.828125 -49.859375 L 6.828125 -64.09375 L 37.6875 -64.09375 L 37.6875 -47.78125 C 37.6875 -40.257812 39.21875 -35.015625 42.28125 -32.046875 C 45.351562 -29.078125 49.460938 -27.59375 54.609375 -27.59375 C 59.753906 -27.59375 63.859375 -29.078125 66.921875 -32.046875 C 69.984375 -35.015625 71.515625 -40.257812 71.515625 -47.78125 C 71.515625 -54.90625 69.929688 -61.1875 66.765625 -66.625 C 63.609375 -72.0625 59.65625 -77.203125 54.90625 -82.046875 C 50.15625 -86.898438 45.054688 -91.75 39.609375 -96.59375 C 34.171875 -101.445312 29.078125 -106.738281 24.328125 -112.46875 C 19.585938 -118.207031 15.632812 -124.738281 12.46875 -132.0625 C 9.300781 -139.382812 7.71875 -147.988281 7.71875 -157.875 Z M 7.71875 -157.875 "/></g></g></g></g></g><g transform="matrix(1, 0, 0, 1, 585, 744)"><g clip-path="url(#b1a9957be6)"><g fill="#5170ff" fill-opacity="1"><g transform="translate(0.387991, 222.895125)"><g><path d="M 80.125 0 C 79.726562 -1.382812 79.332031 -2.671875 78.9375 -3.859375 C 78.539062 -5.046875 78.191406 -6.53125 77.890625 -8.3125 C 77.597656 -10.09375 77.398438 -12.367188 77.296875 -15.140625 C 77.203125 -17.910156 77.15625 -21.367188 77.15625 -25.515625 L 77.15625 -58.171875 C 77.15625 -67.859375 75.472656 -74.679688 72.109375 -78.640625 C 68.742188 -82.597656 63.304688 -84.578125 55.796875 -84.578125 L 44.515625 -84.578125 L 44.515625 0 L 11.875 0 L 11.875 -207.734375 L 61.140625 -207.734375 C 78.148438 -207.734375 90.460938 -203.773438 98.078125 -195.859375 C 105.691406 -187.953125 109.5 -175.984375 109.5 -159.953125 L 109.5 -143.640625 C 109.5 -122.265625 102.378906 -108.21875 88.140625 -101.5 C 96.453125 -98.132812 102.140625 -92.640625 105.203125 -85.015625 C 108.265625 -77.398438 109.796875 -68.15625 109.796875 -57.28125 L 109.796875 -25.21875 C 109.796875 -20.082031 109.992188 -15.582031 110.390625 -11.71875 C 110.785156 -7.863281 111.773438 -3.957031 113.359375 0 Z M 44.515625 -178.0625 L 44.515625 -114.25 L 57.28125 -114.25 C 63.40625 -114.25 68.195312 -115.832031 71.65625 -119 C 75.125 -122.164062 76.859375 -127.90625 76.859375 -136.21875 L 76.859375 -156.6875 C 76.859375 -164.207031 75.519531 -169.648438 72.84375 -173.015625 C 70.175781 -176.378906 65.976562 -178.0625 60.25 -178.0625 Z M 44.515625 -178.0625 "/></g></g></g><g fill="#5170ff" fill-opacity="1"><g transform="translate(119.682145, 222.895125)"><g><path d="M 117.515625 0 L 84.578125 0 L 78.9375 -37.6875 L 38.875 -37.6875 L 33.234375 0 L 3.265625 0 L 36.5 -207.734375 L 84.28125 -207.734375 Z M 43.03125 -65.875 L 74.484375 -65.875 L 58.765625 -170.9375 Z M 43.03125 -65.875 "/></g></g></g><g fill="#5170ff" fill-opacity="1"><g transform="translate(240.460048, 222.895125)"><g><path d="M 40.953125 -150.453125 L 40.953125 0 L 11.578125 0 L 11.578125 -207.734375 L 52.53125 -207.734375 L 86.0625 -83.390625 L 86.0625 -207.734375 L 115.140625 -207.734375 L 115.140625 0 L 81.609375 0 Z M 40.953125 -150.453125 "/></g></g></g><g fill="#5170ff" fill-opacity="1"><g transform="translate(367.172962, 222.895125)"><g><path d="M 54.609375 -82.796875 L 44.515625 -63.796875 L 44.515625 0 L 11.875 0 L 11.875 -207.734375 L 44.515625 -207.734375 L 44.515625 -117.21875 L 87.84375 -207.734375 L 119.890625 -207.734375 L 74.484375 -115.140625 L 119.890625 0 L 86.359375 0 Z M 54.609375 -82.796875 "/></g></g></g></g></g><g transform="matrix(1, 0, 0, 1, 300, 1013)"><g clip-path="url(#eb6a26a336)"><g fill="#000000" fill-opacity="1"><g transform="translate(0.093611, 94.099914)"><g><path d="M 8.328125 0 C 7.648438 0 7.3125 -0.335938 7.3125 -1.015625 L 7.3125 -70.046875 C 7.3125 -70.722656 7.648438 -71.0625 8.328125 -71.0625 L 23.953125 -71.0625 C 29.171875 -71.0625 33.332031 -69.351562 36.4375 -65.9375 C 39.550781 -62.519531 41.109375 -57.929688 41.109375 -52.171875 L 41.109375 -18.875 C 41.109375 -13.125 39.550781 -8.539062 36.4375 -5.125 C 33.332031 -1.707031 29.171875 0 23.953125 0 Z M 14.515625 -6.703125 C 14.515625 -6.429688 14.648438 -6.296875 14.921875 -6.296875 L 23.859375 -6.390625 C 26.835938 -6.390625 29.222656 -7.539062 31.015625 -9.84375 C 32.804688 -12.144531 33.734375 -15.257812 33.796875 -19.1875 L 33.796875 -51.875 C 33.796875 -55.863281 32.914062 -59.007812 31.15625 -61.3125 C 29.40625 -63.613281 26.972656 -64.765625 23.859375 -64.765625 L 14.921875 -64.765625 C 14.648438 -64.765625 14.515625 -64.628906 14.515625 -64.359375 Z M 14.515625 -6.703125 "/></g></g></g><g fill="#000000" fill-opacity="1"><g transform="translate(47.295682, 94.099914)"><g><path d="M 10.5625 -60.703125 C 8.863281 -60.703125 7.488281 -61.242188 6.4375 -62.328125 C 5.394531 -63.410156 4.875 -64.765625 4.875 -66.390625 C 4.875 -68.078125 5.394531 -69.445312 6.4375 -70.5 C 7.488281 -71.550781 8.863281 -72.078125 10.5625 -72.078125 C 12.1875 -72.078125 13.519531 -71.550781 14.5625 -70.5 C 15.613281 -69.445312 16.140625 -68.078125 16.140625 -66.390625 C 16.140625 -64.765625 15.613281 -63.410156 14.5625 -62.328125 C 13.519531 -61.242188 12.1875 -60.703125 10.5625 -60.703125 Z M 8.015625 0 C 7.335938 0 7 -0.335938 7 -1.015625 L 7 -50.359375 C 7 -51.023438 7.335938 -51.359375 8.015625 -51.359375 L 13.203125 -51.359375 C 13.878906 -51.359375 14.21875 -51.023438 14.21875 -50.359375 L 14.21875 -1.015625 C 14.21875 -0.335938 13.878906 0 13.203125 0 Z M 8.015625 0 "/></g></g></g><g fill="#000000" fill-opacity="1"><g transform="translate(68.409763, 94.099914)"><g><path d="M 29.546875 -50.359375 C 29.546875 -51.023438 29.882812 -51.359375 30.5625 -51.359375 L 35.734375 -51.359375 C 36.410156 -51.359375 36.75 -51.023438 36.75 -50.359375 L 36.75 -1.015625 C 36.75 6.222656 35.070312 11.71875 31.71875 15.46875 C 28.375 19.226562 22.773438 20.941406 14.921875 20.609375 C 14.242188 20.535156 13.90625 20.160156 13.90625 19.484375 L 13.90625 15.125 C 13.90625 14.445312 14.242188 14.109375 14.921875 14.109375 C 20.335938 14.242188 24.128906 13.007812 26.296875 10.40625 C 28.460938 7.800781 29.546875 3.789062 29.546875 -1.625 L 29.546875 -4.671875 C 29.546875 -4.804688 29.492188 -4.90625 29.390625 -4.96875 C 29.285156 -5.039062 29.164062 -5.007812 29.03125 -4.875 C 27.882812 -3.175781 26.410156 -1.890625 24.609375 -1.015625 C 22.816406 -0.140625 20.90625 0.296875 18.875 0.296875 C 14.613281 0.296875 11.25 -1.117188 8.78125 -3.953125 C 6.3125 -6.796875 5.078125 -10.554688 5.078125 -15.234375 L 5.078125 -36.640625 C 5.078125 -41.378906 6.3125 -45.148438 8.78125 -47.953125 C 11.25 -50.765625 14.613281 -52.171875 18.875 -52.171875 C 20.90625 -52.171875 22.816406 -51.75 24.609375 -50.90625 C 26.410156 -50.0625 27.882812 -48.796875 29.03125 -47.109375 C 29.164062 -46.898438 29.285156 -46.8125 29.390625 -46.84375 C 29.492188 -46.882812 29.546875 -47.003906 29.546875 -47.203125 Z M 21.015625 -5.984375 C 23.515625 -5.984375 25.5625 -6.878906 27.15625 -8.671875 C 28.75 -10.472656 29.546875 -12.796875 29.546875 -15.640625 L 29.546875 -36.140625 C 29.546875 -39.046875 28.75 -41.394531 27.15625 -43.1875 C 25.5625 -44.988281 23.515625 -45.890625 21.015625 -45.890625 C 18.441406 -45.890625 16.34375 -44.988281 14.71875 -43.1875 C 13.09375 -41.394531 12.28125 -39.046875 12.28125 -36.140625 L 12.28125 -15.640625 C 12.28125 -12.796875 13.09375 -10.472656 14.71875 -8.671875 C 16.34375 -6.878906 18.441406 -5.984375 21.015625 -5.984375 Z M 21.015625 -5.984375 "/></g></g></g><g fill="#000000" fill-opacity="1"><g transform="translate(110.333381, 94.099914)"><g><path d="M 10.5625 -60.703125 C 8.863281 -60.703125 7.488281 -61.242188 6.4375 -62.328125 C 5.394531 -63.410156 4.875 -64.765625 4.875 -66.390625 C 4.875 -68.078125 5.394531 -69.445312 6.4375 -70.5 C 7.488281 -71.550781 8.863281 -72.078125 10.5625 -72.078125 C 12.1875 -72.078125 13.519531 -71.550781 14.5625 -70.5 C 15.613281 -69.445312 16.140625 -68.078125 16.140625 -66.390625 C 16.140625 -64.765625 15.613281 -63.410156 14.5625 -62.328125 C 13.519531 -61.242188 12.1875 -60.703125 10.5625 -60.703125 Z M 8.015625 0 C 7.335938 0 7 -0.335938 7 -1.015625 L 7 -50.359375 C 7 -51.023438 7.335938 -51.359375 8.015625 -51.359375 L 13.203125 -51.359375 C 13.878906 -51.359375 14.21875 -51.023438 14.21875 -50.359375 L 14.21875 -1.015625 C 14.21875 -0.335938 13.878906 0 13.203125 0 Z M 8.015625 0 "/></g></g></g><g fill="#000000" fill-opacity="1"><g transform="translate(131.447463, 94.099914)"><g><path d="M 24.265625 -47 C 24.265625 -46.320312 23.925781 -45.984375 23.25 -45.984375 L 15.53125 -45.984375 C 15.257812 -45.984375 15.125 -45.847656 15.125 -45.578125 L 15.125 -14.515625 C 15.125 -11.398438 15.664062 -9.25 16.75 -8.0625 C 17.832031 -6.882812 19.488281 -6.328125 21.71875 -6.390625 L 22.734375 -6.390625 C 23.410156 -6.390625 23.75 -6.050781 23.75 -5.375 L 23.75 -1.015625 C 23.75 -0.335938 23.410156 0 22.734375 0 L 20.203125 0 C 16.210938 0 13.179688 -0.859375 11.109375 -2.578125 C 9.046875 -4.304688 8.015625 -7.578125 8.015625 -12.390625 L 8.015625 -45.578125 C 8.015625 -45.847656 7.878906 -45.984375 7.609375 -45.984375 L 3.65625 -45.984375 C 2.976562 -45.984375 2.640625 -46.320312 2.640625 -47 L 2.640625 -50.359375 C 2.640625 -51.023438 2.976562 -51.359375 3.65625 -51.359375 L 7.609375 -51.359375 C 7.878906 -51.359375 8.015625 -51.492188 8.015625 -51.765625 L 8.015625 -63.140625 C 8.015625 -63.816406 8.351562 -64.15625 9.03125 -64.15625 L 14.109375 -64.15625 C 14.785156 -64.15625 15.125 -63.816406 15.125 -63.140625 L 15.125 -51.765625 C 15.125 -51.492188 15.257812 -51.359375 15.53125 -51.359375 L 23.25 -51.359375 C 23.925781 -51.359375 24.265625 -51.023438 24.265625 -50.359375 Z M 24.265625 -47 "/></g></g></g><g fill="#000000" fill-opacity="1"><g transform="translate(158.550632, 94.099914)"><g><path d="M 21.21875 -52.171875 C 25.957031 -52.171875 29.742188 -50.628906 32.578125 -47.546875 C 35.421875 -44.472656 36.84375 -40.363281 36.84375 -35.21875 L 36.84375 -1.015625 C 36.84375 -0.335938 36.503906 0 35.828125 0 L 30.65625 0 C 29.976562 0 29.640625 -0.335938 29.640625 -1.015625 L 29.640625 -4.0625 C 29.640625 -4.195312 29.585938 -4.28125 29.484375 -4.3125 C 29.390625 -4.34375 29.273438 -4.289062 29.140625 -4.15625 C 26.628906 -0.84375 22.867188 0.8125 17.859375 0.8125 C 14.140625 0.8125 10.910156 -0.25 8.171875 -2.375 C 5.429688 -4.507812 4.0625 -8.285156 4.0625 -13.703125 C 4.0625 -19.453125 5.71875 -23.664062 9.03125 -26.34375 C 12.351562 -29.019531 16.71875 -30.359375 22.125 -30.359375 L 29.234375 -30.359375 C 29.503906 -30.359375 29.640625 -30.492188 29.640625 -30.765625 L 29.640625 -34.71875 C 29.640625 -38.101562 28.859375 -40.8125 27.296875 -42.84375 C 25.742188 -44.875 23.648438 -45.890625 21.015625 -45.890625 C 18.984375 -45.890625 17.238281 -45.210938 15.78125 -43.859375 C 14.332031 -42.503906 13.472656 -40.773438 13.203125 -38.671875 C 13.203125 -37.992188 12.863281 -37.65625 12.1875 -37.65625 L 6.5 -37.765625 C 6.15625 -37.765625 5.898438 -37.863281 5.734375 -38.0625 C 5.566406 -38.269531 5.515625 -38.507812 5.578125 -38.78125 C 5.921875 -42.769531 7.546875 -46 10.453125 -48.46875 C 13.367188 -50.9375 16.957031 -52.171875 21.21875 -52.171875 Z M 19.390625 -5.484375 C 22.160156 -5.484375 24.5625 -6.378906 26.59375 -8.171875 C 28.625 -9.960938 29.640625 -12.453125 29.640625 -15.640625 L 29.640625 -24.15625 C 29.640625 -24.425781 29.503906 -24.5625 29.234375 -24.5625 L 22.03125 -24.5625 C 18.78125 -24.5625 16.207031 -23.695312 14.3125 -21.96875 C 12.414062 -20.25 11.46875 -17.695312 11.46875 -14.3125 C 11.46875 -11.332031 12.195312 -9.113281 13.65625 -7.65625 C 15.113281 -6.207031 17.023438 -5.484375 19.390625 -5.484375 Z M 19.390625 -5.484375 "/></g></g></g><g fill="#000000" fill-opacity="1"><g transform="translate(200.47425, 94.099914)"><g><path d="M 6.59375 0 C 5.914062 0 5.578125 -0.335938 5.578125 -1.015625 L 5.578125 -70.046875 C 5.578125 -70.722656 5.914062 -71.0625 6.59375 -71.0625 L 11.78125 -71.0625 C 12.457031 -71.0625 12.796875 -70.722656 12.796875 -70.046875 L 12.796875 -1.015625 C 12.796875 -0.335938 12.457031 0 11.78125 0 Z M 6.59375 0 "/></g></g></g><g fill="#000000" fill-opacity="1"><g transform="translate(218.847516, 94.099914)"><g><path d="M 36.84375 -23.953125 C 36.84375 -23.273438 36.503906 -22.9375 35.828125 -22.9375 L 12.6875 -22.9375 C 12.414062 -22.9375 12.28125 -22.800781 12.28125 -22.53125 L 12.28125 -15.125 C 12.28125 -12.28125 13.070312 -9.960938 14.65625 -8.171875 C 16.25 -6.378906 18.332031 -5.484375 20.90625 -5.484375 C 23.070312 -5.484375 24.914062 -6.140625 26.4375 -7.453125 C 27.96875 -8.773438 28.96875 -10.488281 29.4375 -12.59375 C 29.644531 -13.195312 30.019531 -13.5 30.5625 -13.5 L 35.625 -13.296875 C 35.894531 -13.296875 36.128906 -13.191406 36.328125 -12.984375 C 36.535156 -12.785156 36.609375 -12.519531 36.546875 -12.1875 C 36.003906 -8.1875 34.363281 -5.019531 31.625 -2.6875 C 28.882812 -0.351562 25.3125 0.8125 20.90625 0.8125 C 16.101562 0.8125 12.265625 -0.609375 9.390625 -3.453125 C 6.515625 -6.296875 5.078125 -10.050781 5.078125 -14.71875 L 5.078125 -36.640625 C 5.078125 -41.242188 6.515625 -44.984375 9.390625 -47.859375 C 12.265625 -50.734375 16.101562 -52.171875 20.90625 -52.171875 C 25.78125 -52.171875 29.65625 -50.734375 32.53125 -47.859375 C 35.40625 -44.984375 36.84375 -41.242188 36.84375 -36.640625 Z M 20.90625 -45.890625 C 18.332031 -45.890625 16.25 -44.988281 14.65625 -43.1875 C 13.070312 -41.394531 12.28125 -39.046875 12.28125 -36.140625 L 12.28125 -29.34375 C 12.28125 -29.070312 12.414062 -28.9375 12.6875 -28.9375 L 29.34375 -28.9375 C 29.613281 -28.9375 29.75 -29.070312 29.75 -29.34375 L 29.75 -36.140625 C 29.75 -39.046875 28.9375 -41.394531 27.3125 -43.1875 C 25.6875 -44.988281 23.550781 -45.890625 20.90625 -45.890625 Z M 20.90625 -45.890625 "/></g></g></g><g fill="#000000" fill-opacity="1"><g transform="translate(260.162043, 94.099914)"><g/></g></g><g fill="#000000" fill-opacity="1"><g transform="translate(280.464035, 94.099914)"><g><path d="M 38.265625 -70.34375 C 38.472656 -70.820312 38.878906 -71.0625 39.484375 -71.0625 L 44.765625 -71.0625 C 45.441406 -71.0625 45.78125 -70.722656 45.78125 -70.046875 L 45.78125 -1.015625 C 45.78125 -0.335938 45.441406 0 44.765625 0 L 39.59375 0 C 38.914062 0 38.578125 -0.335938 38.578125 -1.015625 L 38.578125 -55.421875 C 38.578125 -55.628906 38.523438 -55.734375 38.421875 -55.734375 C 38.316406 -55.734375 38.195312 -55.664062 38.0625 -55.53125 L 27.515625 -33.609375 C 27.304688 -33.128906 26.96875 -32.890625 26.5 -32.890625 C 25.957031 -32.890625 25.582031 -33.128906 25.375 -33.609375 L 14.828125 -55.421875 C 14.691406 -55.554688 14.570312 -55.625 14.46875 -55.625 C 14.363281 -55.625 14.3125 -55.523438 14.3125 -55.328125 L 14.3125 -1.015625 C 14.3125 -0.335938 13.972656 0 13.296875 0 L 8.125 0 C 7.445312 0 7.109375 -0.335938 7.109375 -1.015625 L 7.109375 -70.046875 C 7.109375 -70.722656 7.445312 -71.0625 8.125 -71.0625 L 13.40625 -71.0625 C 14.007812 -71.0625 14.414062 -70.820312 14.625 -70.34375 L 26.1875 -46.90625 C 26.257812 -46.769531 26.363281 -46.703125 26.5 -46.703125 C 26.632812 -46.703125 26.734375 -46.769531 26.796875 -46.90625 Z M 38.265625 -70.34375 "/></g></g></g><g fill="#000000" fill-opacity="1"><g transform="translate(333.350649, 94.099914)"><g><path d="M 21.21875 -52.171875 C 25.957031 -52.171875 29.742188 -50.628906 32.578125 -47.546875 C 35.421875 -44.472656 36.84375 -40.363281 36.84375 -35.21875 L 36.84375 -1.015625 C 36.84375 -0.335938 36.503906 0 35.828125 0 L 30.65625 0 C 29.976562 0 29.640625 -0.335938 29.640625 -1.015625 L 29.640625 -4.0625 C 29.640625 -4.195312 29.585938 -4.28125 29.484375 -4.3125 C 29.390625 -4.34375 29.273438 -4.289062 29.140625 -4.15625 C 26.628906 -0.84375 22.867188 0.8125 17.859375 0.8125 C 14.140625 0.8125 10.910156 -0.25 8.171875 -2.375 C 5.429688 -4.507812 4.0625 -8.285156 4.0625 -13.703125 C 4.0625 -19.453125 5.71875 -23.664062 9.03125 -26.34375 C 12.351562 -29.019531 16.71875 -30.359375 22.125 -30.359375 L 29.234375 -30.359375 C 29.503906 -30.359375 29.640625 -30.492188 29.640625 -30.765625 L 29.640625 -34.71875 C 29.640625 -38.101562 28.859375 -40.8125 27.296875 -42.84375 C 25.742188 -44.875 23.648438 -45.890625 21.015625 -45.890625 C 18.984375 -45.890625 17.238281 -45.210938 15.78125 -43.859375 C 14.332031 -42.503906 13.472656 -40.773438 13.203125 -38.671875 C 13.203125 -37.992188 12.863281 -37.65625 12.1875 -37.65625 L 6.5 -37.765625 C 6.15625 -37.765625 5.898438 -37.863281 5.734375 -38.0625 C 5.566406 -38.269531 5.515625 -38.507812 5.578125 -38.78125 C 5.921875 -42.769531 7.546875 -46 10.453125 -48.46875 C 13.367188 -50.9375 16.957031 -52.171875 21.21875 -52.171875 Z M 19.390625 -5.484375 C 22.160156 -5.484375 24.5625 -6.378906 26.59375 -8.171875 C 28.625 -9.960938 29.640625 -12.453125 29.640625 -15.640625 L 29.640625 -24.15625 C 29.640625 -24.425781 29.503906 -24.5625 29.234375 -24.5625 L 22.03125 -24.5625 C 18.78125 -24.5625 16.207031 -23.695312 14.3125 -21.96875 C 12.414062 -20.25 11.46875 -17.695312 11.46875 -14.3125 C 11.46875 -11.332031 12.195312 -9.113281 13.65625 -7.65625 C 15.113281 -6.207031 17.023438 -5.484375 19.390625 -5.484375 Z M 19.390625 -5.484375 "/></g></g></g><g fill="#000000" fill-opacity="1"><g transform="translate(375.274267, 94.099914)"><g><path d="M 23.546875 -51.875 C 25.242188 -51.875 26.703125 -51.5 27.921875 -50.75 C 28.390625 -50.488281 28.554688 -50.050781 28.421875 -49.4375 L 27.203125 -44.15625 C 27.140625 -43.550781 26.734375 -43.347656 25.984375 -43.546875 C 25.171875 -43.953125 24.15625 -44.15625 22.9375 -44.15625 C 22.394531 -44.15625 21.988281 -44.125 21.71875 -44.0625 C 19.28125 -43.925781 17.285156 -42.65625 15.734375 -40.25 C 14.179688 -37.84375 13.40625 -34.914062 13.40625 -31.46875 L 13.40625 -1.015625 C 13.40625 -0.335938 13.066406 0 12.390625 0 L 7.203125 0 C 6.523438 0 6.1875 -0.335938 6.1875 -1.015625 L 6.1875 -50.359375 C 6.1875 -51.023438 6.523438 -51.359375 7.203125 -51.359375 L 12.390625 -51.359375 C 13.066406 -51.359375 13.40625 -51.023438 13.40625 -50.359375 L 13.40625 -44.265625 C 13.40625 -44.054688 13.453125 -43.953125 13.546875 -43.953125 C 13.648438 -43.953125 13.769531 -44.019531 13.90625 -44.15625 C 15.875 -49.300781 19.085938 -51.875 23.546875 -51.875 Z M 23.546875 -51.875 "/></g></g></g><g fill="#000000" fill-opacity="1"><g transform="translate(404.915163, 94.099914)"><g><path d="M 7.203125 0 C 6.523438 0 6.1875 -0.335938 6.1875 -1.015625 L 6.1875 -70.046875 C 6.1875 -70.722656 6.523438 -71.0625 7.203125 -71.0625 L 12.390625 -71.0625 C 13.066406 -71.0625 13.40625 -70.722656 13.40625 -70.046875 L 13.40625 -29.234375 C 13.40625 -29.097656 13.472656 -28.992188 13.609375 -28.921875 C 13.742188 -28.859375 13.84375 -28.894531 13.90625 -29.03125 L 29.140625 -50.75 C 29.410156 -51.15625 29.816406 -51.359375 30.359375 -51.359375 L 35.625 -51.359375 C 36.03125 -51.359375 36.300781 -51.238281 36.4375 -51 C 36.570312 -50.769531 36.503906 -50.488281 36.234375 -50.15625 L 26.1875 -35.734375 C 25.988281 -35.523438 25.957031 -35.320312 26.09375 -35.125 L 38.0625 -1.109375 L 38.171875 -0.703125 C 38.171875 -0.234375 37.863281 0 37.25 0 L 31.875 0 C 31.269531 0 30.863281 -0.269531 30.65625 -0.8125 L 21.625 -29.03125 C 21.550781 -29.4375 21.347656 -29.472656 21.015625 -29.140625 L 13.609375 -18.578125 C 13.472656 -18.441406 13.40625 -18.269531 13.40625 -18.0625 L 13.40625 -1.015625 C 13.40625 -0.335938 13.066406 0 12.390625 0 Z M 7.203125 0 "/></g></g></g><g fill="#000000" fill-opacity="1"><g transform="translate(446.026691, 94.099914)"><g><path d="M 36.84375 -23.953125 C 36.84375 -23.273438 36.503906 -22.9375 35.828125 -22.9375 L 12.6875 -22.9375 C 12.414062 -22.9375 12.28125 -22.800781 12.28125 -22.53125 L 12.28125 -15.125 C 12.28125 -12.28125 13.070312 -9.960938 14.65625 -8.171875 C 16.25 -6.378906 18.332031 -5.484375 20.90625 -5.484375 C 23.070312 -5.484375 24.914062 -6.140625 26.4375 -7.453125 C 27.96875 -8.773438 28.96875 -10.488281 29.4375 -12.59375 C 29.644531 -13.195312 30.019531 -13.5 30.5625 -13.5 L 35.625 -13.296875 C 35.894531 -13.296875 36.128906 -13.191406 36.328125 -12.984375 C 36.535156 -12.785156 36.609375 -12.519531 36.546875 -12.1875 C 36.003906 -8.1875 34.363281 -5.019531 31.625 -2.6875 C 28.882812 -0.351562 25.3125 0.8125 20.90625 0.8125 C 16.101562 0.8125 12.265625 -0.609375 9.390625 -3.453125 C 6.515625 -6.296875 5.078125 -10.050781 5.078125 -14.71875 L 5.078125 -36.640625 C 5.078125 -41.242188 6.515625 -44.984375 9.390625 -47.859375 C 12.265625 -50.734375 16.101562 -52.171875 20.90625 -52.171875 C 25.78125 -52.171875 29.65625 -50.734375 32.53125 -47.859375 C 35.40625 -44.984375 36.84375 -41.242188 36.84375 -36.640625 Z M 20.90625 -45.890625 C 18.332031 -45.890625 16.25 -44.988281 14.65625 -43.1875 C 13.070312 -41.394531 12.28125 -39.046875 12.28125 -36.140625 L 12.28125 -29.34375 C 12.28125 -29.070312 12.414062 -28.9375 12.6875 -28.9375 L 29.34375 -28.9375 C 29.613281 -28.9375 29.75 -29.070312 29.75 -29.34375 L 29.75 -36.140625 C 29.75 -39.046875 28.9375 -41.394531 27.3125 -43.1875 C 25.6875 -44.988281 23.550781 -45.890625 20.90625 -45.890625 Z M 20.90625 -45.890625 "/></g></g></g><g fill="#000000" fill-opacity="1"><g transform="translate(487.341218, 94.099914)"><g><path d="M 24.265625 -47 C 24.265625 -46.320312 23.925781 -45.984375 23.25 -45.984375 L 15.53125 -45.984375 C 15.257812 -45.984375 15.125 -45.847656 15.125 -45.578125 L 15.125 -14.515625 C 15.125 -11.398438 15.664062 -9.25 16.75 -8.0625 C 17.832031 -6.882812 19.488281 -6.328125 21.71875 -6.390625 L 22.734375 -6.390625 C 23.410156 -6.390625 23.75 -6.050781 23.75 -5.375 L 23.75 -1.015625 C 23.75 -0.335938 23.410156 0 22.734375 0 L 20.203125 0 C 16.210938 0 13.179688 -0.859375 11.109375 -2.578125 C 9.046875 -4.304688 8.015625 -7.578125 8.015625 -12.390625 L 8.015625 -45.578125 C 8.015625 -45.847656 7.878906 -45.984375 7.609375 -45.984375 L 3.65625 -45.984375 C 2.976562 -45.984375 2.640625 -46.320312 2.640625 -47 L 2.640625 -50.359375 C 2.640625 -51.023438 2.976562 -51.359375 3.65625 -51.359375 L 7.609375 -51.359375 C 7.878906 -51.359375 8.015625 -51.492188 8.015625 -51.765625 L 8.015625 -63.140625 C 8.015625 -63.816406 8.351562 -64.15625 9.03125 -64.15625 L 14.109375 -64.15625 C 14.785156 -64.15625 15.125 -63.816406 15.125 -63.140625 L 15.125 -51.765625 C 15.125 -51.492188 15.257812 -51.359375 15.53125 -51.359375 L 23.25 -51.359375 C 23.925781 -51.359375 24.265625 -51.023438 24.265625 -50.359375 Z M 24.265625 -47 "/></g></g></g><g fill="#000000" fill-opacity="1"><g transform="translate(514.444388, 94.099914)"><g><path d="M 10.5625 -60.703125 C 8.863281 -60.703125 7.488281 -61.242188 6.4375 -62.328125 C 5.394531 -63.410156 4.875 -64.765625 4.875 -66.390625 C 4.875 -68.078125 5.394531 -69.445312 6.4375 -70.5 C 7.488281 -71.550781 8.863281 -72.078125 10.5625 -72.078125 C 12.1875 -72.078125 13.519531 -71.550781 14.5625 -70.5 C 15.613281 -69.445312 16.140625 -68.078125 16.140625 -66.390625 C 16.140625 -64.765625 15.613281 -63.410156 14.5625 -62.328125 C 13.519531 -61.242188 12.1875 -60.703125 10.5625 -60.703125 Z M 8.015625 0 C 7.335938 0 7 -0.335938 7 -1.015625 L 7 -50.359375 C 7 -51.023438 7.335938 -51.359375 8.015625 -51.359375 L 13.203125 -51.359375 C 13.878906 -51.359375 14.21875 -51.023438 14.21875 -50.359375 L 14.21875 -1.015625 C 14.21875 -0.335938 13.878906 0 13.203125 0 Z M 8.015625 0 "/></g></g></g><g fill="#000000" fill-opacity="1"><g transform="translate(535.558469, 94.099914)"><g><path d="M 24.46875 -52.078125 C 28.59375 -52.078125 31.785156 -50.65625 34.046875 -47.8125 C 36.316406 -44.96875 37.453125 -41.007812 37.453125 -35.9375 L 37.453125 -1.015625 C 37.453125 -0.335938 37.113281 0 36.4375 0 L 31.265625 0 C 30.585938 0 30.25 -0.335938 30.25 -1.015625 L 30.25 -35.328125 C 30.25 -38.640625 29.519531 -41.207031 28.0625 -43.03125 C 26.613281 -44.863281 24.601562 -45.78125 22.03125 -45.78125 C 19.320312 -45.78125 17.207031 -44.796875 15.6875 -42.828125 C 14.164062 -40.867188 13.40625 -38.195312 13.40625 -34.8125 L 13.40625 -1.015625 C 13.40625 -0.335938 13.066406 0 12.390625 0 L 7.203125 0 C 6.523438 0 6.1875 -0.335938 6.1875 -1.015625 L 6.1875 -50.359375 C 6.1875 -51.023438 6.523438 -51.359375 7.203125 -51.359375 L 12.390625 -51.359375 C 13.066406 -51.359375 13.40625 -51.023438 13.40625 -50.359375 L 13.40625 -47.109375 C 13.40625 -46.972656 13.472656 -46.867188 13.609375 -46.796875 C 13.742188 -46.734375 13.84375 -46.800781 13.90625 -47 C 15.125 -48.695312 16.660156 -49.96875 18.515625 -50.8125 C 20.378906 -51.65625 22.363281 -52.078125 24.46875 -52.078125 Z M 24.46875 -52.078125 "/></g></g></g><g fill="#000000" fill-opacity="1"><g transform="translate(578.598633, 94.099914)"><g><path d="M 29.546875 -50.359375 C 29.546875 -51.023438 29.882812 -51.359375 30.5625 -51.359375 L 35.734375 -51.359375 C 36.410156 -51.359375 36.75 -51.023438 36.75 -50.359375 L 36.75 -1.015625 C 36.75 6.222656 35.070312 11.71875 31.71875 15.46875 C 28.375 19.226562 22.773438 20.941406 14.921875 20.609375 C 14.242188 20.535156 13.90625 20.160156 13.90625 19.484375 L 13.90625 15.125 C 13.90625 14.445312 14.242188 14.109375 14.921875 14.109375 C 20.335938 14.242188 24.128906 13.007812 26.296875 10.40625 C 28.460938 7.800781 29.546875 3.789062 29.546875 -1.625 L 29.546875 -4.671875 C 29.546875 -4.804688 29.492188 -4.90625 29.390625 -4.96875 C 29.285156 -5.039062 29.164062 -5.007812 29.03125 -4.875 C 27.882812 -3.175781 26.410156 -1.890625 24.609375 -1.015625 C 22.816406 -0.140625 20.90625 0.296875 18.875 0.296875 C 14.613281 0.296875 11.25 -1.117188 8.78125 -3.953125 C 6.3125 -6.796875 5.078125 -10.554688 5.078125 -15.234375 L 5.078125 -36.640625 C 5.078125 -41.378906 6.3125 -45.148438 8.78125 -47.953125 C 11.25 -50.765625 14.613281 -52.171875 18.875 -52.171875 C 20.90625 -52.171875 22.816406 -51.75 24.609375 -50.90625 C 26.410156 -50.0625 27.882812 -48.796875 29.03125 -47.109375 C 29.164062 -46.898438 29.285156 -46.8125 29.390625 -46.84375 C 29.492188 -46.882812 29.546875 -47.003906 29.546875 -47.203125 Z M 21.015625 -5.984375 C 23.515625 -5.984375 25.5625 -6.878906 27.15625 -8.671875 C 28.75 -10.472656 29.546875 -12.796875 29.546875 -15.640625 L 29.546875 -36.140625 C 29.546875 -39.046875 28.75 -41.394531 27.15625 -43.1875 C 25.5625 -44.988281 23.515625 -45.890625 21.015625 -45.890625 C 18.441406 -45.890625 16.34375 -44.988281 14.71875 -43.1875 C 13.09375 -41.394531 12.28125 -39.046875 12.28125 -36.140625 L 12.28125 -15.640625 C 12.28125 -12.796875 13.09375 -10.472656 14.71875 -8.671875 C 16.34375 -6.878906 18.441406 -5.984375 21.015625 -5.984375 Z M 21.015625 -5.984375 "/></g></g></g><g fill="#000000" fill-opacity="1"><g transform="translate(620.522251, 94.099914)"><g/></g></g><g fill="#000000" fill-opacity="1"><g transform="translate(640.824242, 94.099914)"><g><path d="M 34.109375 0 C 33.503906 0 33.132812 -0.300781 33 -0.90625 L 30.453125 -13.5 C 30.453125 -13.632812 30.398438 -13.734375 30.296875 -13.796875 C 30.203125 -13.867188 30.085938 -13.90625 29.953125 -13.90625 L 11.578125 -13.90625 C 11.441406 -13.90625 11.320312 -13.867188 11.21875 -13.796875 C 11.113281 -13.734375 11.0625 -13.632812 11.0625 -13.5 L 8.53125 -0.90625 C 8.457031 -0.300781 8.082031 0 7.40625 0 L 2.234375 0 C 1.890625 0 1.632812 -0.0976562 1.46875 -0.296875 C 1.300781 -0.503906 1.25 -0.773438 1.3125 -1.109375 L 16.546875 -70.140625 C 16.679688 -70.753906 17.050781 -71.0625 17.65625 -71.0625 L 23.75 -71.0625 C 24.425781 -71.0625 24.800781 -70.753906 24.875 -70.140625 L 40.296875 -1.109375 L 40.296875 -0.90625 C 40.296875 -0.300781 39.992188 0 39.390625 0 Z M 12.390625 -20.203125 C 12.390625 -19.929688 12.488281 -19.796875 12.6875 -19.796875 L 28.734375 -19.796875 C 28.929688 -19.796875 29.03125 -19.929688 29.03125 -20.203125 L 20.90625 -60.09375 C 20.84375 -60.300781 20.773438 -60.40625 20.703125 -60.40625 C 20.640625 -60.40625 20.570312 -60.300781 20.5 -60.09375 Z M 12.390625 -20.203125 "/></g></g></g><g fill="#000000" fill-opacity="1"><g transform="translate(682.443315, 94.099914)"><g><path d="M 29.546875 -50.359375 C 29.546875 -51.023438 29.882812 -51.359375 30.5625 -51.359375 L 35.734375 -51.359375 C 36.410156 -51.359375 36.75 -51.023438 36.75 -50.359375 L 36.75 -1.015625 C 36.75 6.222656 35.070312 11.71875 31.71875 15.46875 C 28.375 19.226562 22.773438 20.941406 14.921875 20.609375 C 14.242188 20.535156 13.90625 20.160156 13.90625 19.484375 L 13.90625 15.125 C 13.90625 14.445312 14.242188 14.109375 14.921875 14.109375 C 20.335938 14.242188 24.128906 13.007812 26.296875 10.40625 C 28.460938 7.800781 29.546875 3.789062 29.546875 -1.625 L 29.546875 -4.671875 C 29.546875 -4.804688 29.492188 -4.90625 29.390625 -4.96875 C 29.285156 -5.039062 29.164062 -5.007812 29.03125 -4.875 C 27.882812 -3.175781 26.410156 -1.890625 24.609375 -1.015625 C 22.816406 -0.140625 20.90625 0.296875 18.875 0.296875 C 14.613281 0.296875 11.25 -1.117188 8.78125 -3.953125 C 6.3125 -6.796875 5.078125 -10.554688 5.078125 -15.234375 L 5.078125 -36.640625 C 5.078125 -41.378906 6.3125 -45.148438 8.78125 -47.953125 C 11.25 -50.765625 14.613281 -52.171875 18.875 -52.171875 C 20.90625 -52.171875 22.816406 -51.75 24.609375 -50.90625 C 26.410156 -50.0625 27.882812 -48.796875 29.03125 -47.109375 C 29.164062 -46.898438 29.285156 -46.8125 29.390625 -46.84375 C 29.492188 -46.882812 29.546875 -47.003906 29.546875 -47.203125 Z M 21.015625 -5.984375 C 23.515625 -5.984375 25.5625 -6.878906 27.15625 -8.671875 C 28.75 -10.472656 29.546875 -12.796875 29.546875 -15.640625 L 29.546875 -36.140625 C 29.546875 -39.046875 28.75 -41.394531 27.15625 -43.1875 C 25.5625 -44.988281 23.515625 -45.890625 21.015625 -45.890625 C 18.441406 -45.890625 16.34375 -44.988281 14.71875 -43.1875 C 13.09375 -41.394531 12.28125 -39.046875 12.28125 -36.140625 L 12.28125 -15.640625 C 12.28125 -12.796875 13.09375 -10.472656 14.71875 -8.671875 C 16.34375 -6.878906 18.441406 -5.984375 21.015625 -5.984375 Z M 21.015625 -5.984375 "/></g></g></g><g fill="#000000" fill-opacity="1"><g transform="translate(724.366933, 94.099914)"><g><path d="M 36.84375 -23.953125 C 36.84375 -23.273438 36.503906 -22.9375 35.828125 -22.9375 L 12.6875 -22.9375 C 12.414062 -22.9375 12.28125 -22.800781 12.28125 -22.53125 L 12.28125 -15.125 C 12.28125 -12.28125 13.070312 -9.960938 14.65625 -8.171875 C 16.25 -6.378906 18.332031 -5.484375 20.90625 -5.484375 C 23.070312 -5.484375 24.914062 -6.140625 26.4375 -7.453125 C 27.96875 -8.773438 28.96875 -10.488281 29.4375 -12.59375 C 29.644531 -13.195312 30.019531 -13.5 30.5625 -13.5 L 35.625 -13.296875 C 35.894531 -13.296875 36.128906 -13.191406 36.328125 -12.984375 C 36.535156 -12.785156 36.609375 -12.519531 36.546875 -12.1875 C 36.003906 -8.1875 34.363281 -5.019531 31.625 -2.6875 C 28.882812 -0.351562 25.3125 0.8125 20.90625 0.8125 C 16.101562 0.8125 12.265625 -0.609375 9.390625 -3.453125 C 6.515625 -6.296875 5.078125 -10.050781 5.078125 -14.71875 L 5.078125 -36.640625 C 5.078125 -41.242188 6.515625 -44.984375 9.390625 -47.859375 C 12.265625 -50.734375 16.101562 -52.171875 20.90625 -52.171875 C 25.78125 -52.171875 29.65625 -50.734375 32.53125 -47.859375 C 35.40625 -44.984375 36.84375 -41.242188 36.84375 -36.640625 Z M 20.90625 -45.890625 C 18.332031 -45.890625 16.25 -44.988281 14.65625 -43.1875 C 13.070312 -41.394531 12.28125 -39.046875 12.28125 -36.140625 L 12.28125 -29.34375 C 12.28125 -29.070312 12.414062 -28.9375 12.6875 -28.9375 L 29.34375 -28.9375 C 29.613281 -28.9375 29.75 -29.070312 29.75 -29.34375 L 29.75 -36.140625 C 29.75 -39.046875 28.9375 -41.394531 27.3125 -43.1875 C 25.6875 -44.988281 23.550781 -45.890625 20.90625 -45.890625 Z M 20.90625 -45.890625 "/></g></g></g><g fill="#000000" fill-opacity="1"><g transform="translate(765.681461, 94.099914)"><g><path d="M 24.46875 -52.078125 C 28.59375 -52.078125 31.785156 -50.65625 34.046875 -47.8125 C 36.316406 -44.96875 37.453125 -41.007812 37.453125 -35.9375 L 37.453125 -1.015625 C 37.453125 -0.335938 37.113281 0 36.4375 0 L 31.265625 0 C 30.585938 0 30.25 -0.335938 30.25 -1.015625 L 30.25 -35.328125 C 30.25 -38.640625 29.519531 -41.207031 28.0625 -43.03125 C 26.613281 -44.863281 24.601562 -45.78125 22.03125 -45.78125 C 19.320312 -45.78125 17.207031 -44.796875 15.6875 -42.828125 C 14.164062 -40.867188 13.40625 -38.195312 13.40625 -34.8125 L 13.40625 -1.015625 C 13.40625 -0.335938 13.066406 0 12.390625 0 L 7.203125 0 C 6.523438 0 6.1875 -0.335938 6.1875 -1.015625 L 6.1875 -50.359375 C 6.1875 -51.023438 6.523438 -51.359375 7.203125 -51.359375 L 12.390625 -51.359375 C 13.066406 -51.359375 13.40625 -51.023438 13.40625 -50.359375 L 13.40625 -47.109375 C 13.40625 -46.972656 13.472656 -46.867188 13.609375 -46.796875 C 13.742188 -46.734375 13.84375 -46.800781 13.90625 -47 C 15.125 -48.695312 16.660156 -49.96875 18.515625 -50.8125 C 20.378906 -51.65625 22.363281 -52.078125 24.46875 -52.078125 Z M 24.46875 -52.078125 "/></g></g></g><g fill="#000000" fill-opacity="1"><g transform="translate(808.721624, 94.099914)"><g><path d="M 24.265625 -47 C 24.265625 -46.320312 23.925781 -45.984375 23.25 -45.984375 L 15.53125 -45.984375 C 15.257812 -45.984375 15.125 -45.847656 15.125 -45.578125 L 15.125 -14.515625 C 15.125 -11.398438 15.664062 -9.25 16.75 -8.0625 C 17.832031 -6.882812 19.488281 -6.328125 21.71875 -6.390625 L 22.734375 -6.390625 C 23.410156 -6.390625 23.75 -6.050781 23.75 -5.375 L 23.75 -1.015625 C 23.75 -0.335938 23.410156 0 22.734375 0 L 20.203125 0 C 16.210938 0 13.179688 -0.859375 11.109375 -2.578125 C 9.046875 -4.304688 8.015625 -7.578125 8.015625 -12.390625 L 8.015625 -45.578125 C 8.015625 -45.847656 7.878906 -45.984375 7.609375 -45.984375 L 3.65625 -45.984375 C 2.976562 -45.984375 2.640625 -46.320312 2.640625 -47 L 2.640625 -50.359375 C 2.640625 -51.023438 2.976562 -51.359375 3.65625 -51.359375 L 7.609375 -51.359375 C 7.878906 -51.359375 8.015625 -51.492188 8.015625 -51.765625 L 8.015625 -63.140625 C 8.015625 -63.816406 8.351562 -64.15625 9.03125 -64.15625 L 14.109375 -64.15625 C 14.785156 -64.15625 15.125 -63.816406 15.125 -63.140625 L 15.125 -51.765625 C 15.125 -51.492188 15.257812 -51.359375 15.53125 -51.359375 L 23.25 -51.359375 C 23.925781 -51.359375 24.265625 -51.023438 24.265625 -50.359375 Z M 24.265625 -47 "/></g></g></g><g fill="#000000" fill-opacity="1"><g transform="translate(835.824794, 94.099914)"><g><path d="M 29.640625 -50.359375 C 29.640625 -51.023438 29.976562 -51.359375 30.65625 -51.359375 L 35.828125 -51.359375 C 36.503906 -51.359375 36.84375 -51.023438 36.84375 -50.359375 L 36.84375 -1.015625 C 36.84375 -0.335938 36.503906 0 35.828125 0 L 30.65625 0 C 29.976562 0 29.640625 -0.335938 29.640625 -1.015625 L 29.640625 -4.46875 C 29.640625 -4.664062 29.585938 -4.765625 29.484375 -4.765625 C 29.390625 -4.765625 29.273438 -4.695312 29.140625 -4.5625 C 27.035156 -1.050781 23.648438 0.703125 18.984375 0.703125 C 14.921875 0.703125 11.6875 -0.53125 9.28125 -3 C 6.882812 -5.46875 5.6875 -9.207031 5.6875 -14.21875 L 5.6875 -50.359375 C 5.6875 -51.023438 6.023438 -51.359375 6.703125 -51.359375 L 11.875 -51.359375 C 12.550781 -51.359375 12.890625 -51.023438 12.890625 -50.359375 L 12.890625 -15.84375 C 12.890625 -12.457031 13.582031 -9.898438 14.96875 -8.171875 C 16.351562 -6.441406 18.367188 -5.578125 21.015625 -5.578125 C 23.722656 -5.578125 25.835938 -6.554688 27.359375 -8.515625 C 28.878906 -10.484375 29.640625 -13.160156 29.640625 -16.546875 Z M 29.640625 -50.359375 "/></g></g></g><g fill="#000000" fill-opacity="1"><g transform="translate(878.864958, 94.099914)"><g><path d="M 23.546875 -51.875 C 25.242188 -51.875 26.703125 -51.5 27.921875 -50.75 C 28.390625 -50.488281 28.554688 -50.050781 28.421875 -49.4375 L 27.203125 -44.15625 C 27.140625 -43.550781 26.734375 -43.347656 25.984375 -43.546875 C 25.171875 -43.953125 24.15625 -44.15625 22.9375 -44.15625 C 22.394531 -44.15625 21.988281 -44.125 21.71875 -44.0625 C 19.28125 -43.925781 17.285156 -42.65625 15.734375 -40.25 C 14.179688 -37.84375 13.40625 -34.914062 13.40625 -31.46875 L 13.40625 -1.015625 C 13.40625 -0.335938 13.066406 0 12.390625 0 L 7.203125 0 C 6.523438 0 6.1875 -0.335938 6.1875 -1.015625 L 6.1875 -50.359375 C 6.1875 -51.023438 6.523438 -51.359375 7.203125 -51.359375 L 12.390625 -51.359375 C 13.066406 -51.359375 13.40625 -51.023438 13.40625 -50.359375 L 13.40625 -44.265625 C 13.40625 -44.054688 13.453125 -43.953125 13.546875 -43.953125 C 13.648438 -43.953125 13.769531 -44.019531 13.90625 -44.15625 C 15.875 -49.300781 19.085938 -51.875 23.546875 -51.875 Z M 23.546875 -51.875 "/></g></g></g></g></g></svg>